<?xml version="1.0" encoding="UTF-8"?>
<!DOCTYPE svg PUBLIC "-//W3C//DTD SVG 1.1//EN" "http://www.w3.org/Graphics/SVG/1.1/DTD/svg11.dtd">
<!-- Creator: CorelDRAW -->
<svg xmlns="http://www.w3.org/2000/svg" xml:space="preserve" width="19.685in" height="19.685in" version="1.1" style="shape-rendering:geometricPrecision; text-rendering:geometricPrecision; image-rendering:optimizeQuality; fill-rule:evenodd; clip-rule:evenodd"
viewBox="0 0 19685.04 19685.04"
 xmlns:xlink="http://www.w3.org/1999/xlink"
 xmlns:xodm="http://www.corel.com/coreldraw/odm/2003">
 <defs>
  <style type="text/css">
   <![CDATA[
    .str0 {stroke:#1E88E5;stroke-width:6.94;stroke-miterlimit:2.61313}
    .str1 {stroke:#1E88E5;stroke-width:3;stroke-miterlimit:2.61313}
    .fil1 {fill:none}
    .fil0 {fill:#1E88E5}
   ]]>
  </style>
   <clipPath id="id0">
    <path d="M9608.7 7806.09l214.02 52.19 87.72 6.07 0 166.11 -301.74 0 0 -224.37z"/>
   </clipPath>
   <clipPath id="id1">
    <path d="M9608.7 7806.09l214.02 52.19 87.72 6.07 0 166.11 -301.74 0 0 -224.37z"/>
   </clipPath>
 </defs>
 <g id="Layer_x0020_1">
  <metadata id="CorelCorpID_0Corel-Layer"/>
  <path class="fil0" d="M10927.91 8266.99l0 385.19 -564.91 0 0 374.7 -759.89 0 0 -1124.08 -364.19 0 0 374.7 -385.19 0 0 -374.7 -749.39 0 0 -385.21 374.7 0 0 -364.18 -374.7 0 0 -794.92 0 -325.67 -735.39 0 0 360.69 374.7 0 0 1873.48 374.68 0 0 749.39 360.71 0 0 -374.71 759.88 0 0 385.2 -749.38 0 0 364.2 374.68 0 0 374.69 738.89 0 0 -374.69 385.2 0 0 374.69 374.69 0 3.5 371.2 360.7 0 0 -745.89 200.7 0 0 759.89 -190.21 0 0 735.39 190.21 0 0 1509.28 -190.21 0 0 374.7 -759.9 0 0 -374.7 -364.19 0 0 374.7 -374.7 0 0 364.19 374.7 0 0 385.19 -385.2 0 0 -374.7 -749.37 0 0 -385.19 742.38 0 7 -364.2 -749.37 0 0 -385.19c504.24,-10.51 1008.51,0 1509.28,0l-10.52 -364.19 -374.69 0 0 -374.7 -364.19 0 0 374.7 -385.19 0 0 -385.2 374.69 0 0 -371.2 385.2 -3.5 0 374.7 374.7 0 -10.52 374.69 749.41 0 0 -364.19 -374.7 0 0 -1120.59 -364.19 0 0 374.7 -385.2 0 0 -374.7 -738.89 0 0 374.7 -374.68 0 0 371.18 -381.71 0 -3.49 -371.18 -735.39 0 0 360.69 374.7 0 -3.51 385.2 -371.19 0 0 1862.98 360.69 0 0 -374.7 388.69 0 -3.49 385.19 -371.19 0 0 738.89 360.69 0 0 -374.7 385.2 0 0 745.89 364.19 0 0 -371.2 385.19 0 0 371.2 1113.59 0 0 -735.39 -374.71 0 0 -385.19 385.2 0 0 374.69 374.7 0 0 1134.59 -749.39 0 0 360.69 374.69 0 0 385.2 -1134.59 0 0 -745.89 -738.88 0 0 360.69 374.68 0 0 385.2 -1131.08 0 -3.5 -374.7 -735.39 0 0 374.7 -759.9 0 0 -381.69 374.7 -3.51 0 -360.69 -738.89 0 0 371.19 -385.2 0 0 -371.19 -738.88 0 0 745.89 -385.21 0 0 -745.89 -735.38 0 0 360.69 374.69 0 -3.49 385.2 -381.7 0 -3.5 -374.7 -371.19 0 -3.5 -756.39c504.26,-10.51 1008.52,-3.5 1509.28,-3.5l-10.51 -360.69 -1495.27 0 0 -374.7 -374.7 0 0 -385.19 385.19 0 0 374.69 738.89 0 -3.49 -374.69 374.68 0 0 -364.19 -371.19 0 -3.49 -374.7 -360.7 0 -3.5 374.7 -1104.92 0 0 -385.2 1094.41 0 0 -374.69 374.7 0 0 -1113.59 -360.7 0 -14 -10.5 190.01 -47.48 -190.01 47.48 0 -371.19 378.19 -3.5 -3.49 -371.2 749.38 -3.49 0 -360.7 -745.89 0 -3.49 -374.69 -360.7 0 -3.5 374.69 -756.39 0 0 -759.89 371.19 0 3.5 -374.71 385.19 0 0 374.71 364.19 0 -3.49 -374.71 385.2 0 0 385.2 -371.2 0 0 364.2 735.38 0 0 -374.7 374.7 0 0 -364.2 -374.7 0 0 -374.69 -745.89 0 -3.49 -374.7 -735.39 0 0 374.7 -385.19 0 0 -170.41 -946.06 2.02 20.96 -432.43 925.1 6.35 0 -165.44 1134.58 0 0 374.7 735.38 0 0 -374.7c500.76,-10.5 998.02,0 1498.78,0l0 -364.18 -374.7 0 0 -381.71 385.2 -3.5 0 374.69 364.19 0 0 -371.2 374.69 -3.5 0 -360.69 -749.39 0 0 -385.2 745.89 -3.51 3.5 -360.69 -1124.09 0 0 -385.2 1120.59 0 3.5 -364.19 -374.69 0 0 -385.2 1134.6 0 -3.51 385.2 -371.19 0 0 364.19 735.39 0 0 -374.69 385.2 0 0 374.69 364.19 0 0 -749.39 385.19 0 0 374.7 738.88 0 0 -374.7 759.9 0 0 1085.57 0 49.02 -385.19 0 0 -374.7 -1484.78 0 -3.51 1124.09 -374.68 0 0 735.38 364.19 0 0 -371.2 385.19 -3.5 0 385.2 -374.7 0 0 364.18 749.4 0 0 374.7 364.19 0 0 -374.7 374.71 0 0 -1120.58 385.19 -3.5 0 1873.48 190.21 0zm-2137.43 -2248.18l-672.15 0 0 -360.69 664.3 1.7 7.85 358.99zm-3305.52 8236.3l-364.19 0 0 -360.69 364.19 0 0 360.69zm2244.68 -5613.44l-360.69 0 0 -364.18 360.69 0 0 364.18zm-371.2 -1498.78l-364.18 0 0 -364.19 360.68 0 3.5 364.19zm-374.69 5991.63l-364.18 0 0 -364.19 360.68 0 3.5 364.19zm0 -749.39l-364.18 0 0 -364.2 364.18 0 0 364.2zm-1124.09 -4118.15l-364.18 0 0 -364.19 364.18 0 0 364.19zm1498.78 -2619.37l-364.18 0 0 -364.19 364.18 0 0 364.19zm-1873.47 3743.46l-364.19 0 0 -364.2 364.19 0 0 364.2zm-374.7 374.69l-364.19 0 0 -364.19 364.19 0 0 364.19zm0 -1498.78l-364.19 0 0 -364.19 364.19 0 0 364.19zm5242.24 0l-367.7 0 3.5 -364.19 364.19 0 0 364.19zm-1873.47 1869.98l-735.39 0 0 -360.7 325.67 0 84.04 0 325.68 0 0 360.7zm2248.17 2248.17l-738.89 0 0 -364.2 325.67 0 84.04 0 329.18 0 0 364.2zm-5991.64 -784.41l0 84.05 0 325.67 -364.18 0 0 -738.89 364.18 0 0 329.17zm3743.47 3029.07l-325.68 0 -49.03 3.52 0 371.19 -360.69 0 0 -735.38 325.67 0 84.04 0 325.68 0 0 360.68zm-749.4 -5277.24l0 413.21 -364.2 0 3.51 -374.69 -374.7 0 0 -364.2 735.39 0 0 325.68zm-1120.59 -749.39l0 87.54 0 325.67 -738.89 0 0 -364.2 374.69 0 0 -49.02 0 -325.67 364.19 0 0 325.67zm749.38 -745.89l0 409.72 -364.18 0 0 -374.7 -749.39 0 0 -364.19 1110.07 0 3.5 329.17zm0 5988.13l0 784.39 -364.18 0 0 -745.88 -749.39 0 0 -364.2 1113.57 0 0 325.68zm0 -3743.47l0 409.73 -364.18 0 0 -374.69 -385.2 3.49 0 381.69 374.69 3.52 0 360.69 -738.88 0 0 -374.69 -374.69 0 0 -360.7 374.69 0 0 -374.69 1110.07 0 3.5 325.66zm-1498.78 2619.38l0 787.91 -1113.57 0 0 -1113.59 1113.57 0 0 325.68zm-374.69 -2619.38l0 420.22 374.69 3.52 0 1120.59 385.2 0 0 -374.7 738.88 0 0 364.19 -374.69 0 0 374.7 -1113.57 0 0 -749.39 -374.7 0 0 -374.7 -749.38 0 0 -360.69 374.69 0 0 -374.7 374.69 0 0 -374.69 364.19 0 0 325.66z"/>
  <path class="fil0" d="M8468.77 4519.3l9533.48 0 0 3350.64c-1150.87,0 -2083.84,932.97 -2083.84,2083.85 0,1150.87 932.96,2083.84 2083.84,2083.84l0 1464.57 0 1886.06 -9533.48 0 0 -1752.46 171.01 -0.61 0 -356.53 -171.01 0 0 -364.2 545.7 0 0 -374.7 190.21 0 0 -1509.28 -190.21 0 0 -41.43 -385.19 3.62 0 423.01 374.7 0 0 364.19 -535.21 0 0 -3503.78 318.02 0 0 745.89 1134.59 0 0 -385.21 -374.69 0 0 -360.68 749.39 0 0 -1047.17 -385.19 0 0 658.47 -1113.59 0 0 -371.2 -328.53 0 0 -1498.24 314.35 0.86 -0.48 -358.99 -313.87 1.93 0 -333.32 0 -67.96 0 -68.01 0 -673.16zm0 8009.97l0 -364.2 121.99 0 84.04 0 329.18 0 0 364.2 -535.21 0zm6474.54 -3299.26c454.85,0 823.57,368.72 823.57,823.58 0,454.84 -368.72,823.56 -823.57,823.56 -454.84,0 -823.57,-368.72 -823.57,-823.56 0,-454.85 368.72,-823.58 823.57,-823.58zm-0.01 2740.09c454.85,0 823.57,368.73 823.57,823.58 0,454.84 -368.72,823.56 -823.57,823.56 -454.84,0 -823.56,-368.72 -823.56,-823.56 0,-454.85 368.72,-823.58 823.56,-823.58zm0.01 -5480.17c454.85,0 823.57,368.72 823.57,823.57 0,454.85 -368.72,823.57 -823.57,823.57 -454.84,0 -823.57,-368.72 -823.57,-823.57 0,-454.84 368.72,-823.57 823.57,-823.57zm-1851.57 7321.05c28.69,0 52.15,23.45 52.15,52.14l0 1137.59c0,28.69 -23.46,52.15 -52.15,52.15 -28.69,0 -52.15,-23.46 -52.15,-52.15l0 -1137.59c0,-28.69 23.46,-52.14 52.15,-52.14zm0 -1504.19c28.69,0 52.15,23.45 52.15,52.14l0 1137.59c0,28.69 -23.46,52.15 -52.15,52.15 -28.69,0 -52.15,-23.46 -52.15,-52.15l0 -1137.59c0,-28.69 23.46,-52.14 52.15,-52.14zm0 -1504.19c28.69,0 52.15,23.45 52.15,52.14l0 1137.59c0,28.69 -23.46,52.14 -52.15,52.14 -28.69,0 -52.15,-23.46 -52.15,-52.14l0 -1137.59c0,-28.69 23.46,-52.14 52.15,-52.14zm0 -1504.2c28.69,0 52.15,23.46 52.15,52.15l0 1137.59c0,28.69 -23.46,52.14 -52.15,52.14 -28.69,0 -52.15,-23.46 -52.15,-52.14l0 -1137.59c0,-28.69 23.46,-52.15 52.15,-52.15zm0 -1504.19c28.69,0 52.15,23.46 52.15,52.15l0 1137.59c0,28.69 -23.46,52.15 -52.15,52.15 -28.69,0 -52.15,-23.46 -52.15,-52.15l0 -1137.59c0,-28.69 23.46,-52.15 52.15,-52.15zm0 -1504.19c28.69,0 52.15,23.46 52.15,52.15l0 1137.58c0,28.69 -23.46,52.15 -52.15,52.15 -28.69,0 -52.15,-23.46 -52.15,-52.15l0 -1137.58c0,-28.69 23.46,-52.15 52.15,-52.15zm0 -1504.19c28.69,0 52.15,23.45 52.15,52.14l0 1137.59c0,28.69 -23.46,52.15 -52.15,52.15 -28.69,0 -52.15,-23.46 -52.15,-52.15l0 -1137.59c0,-28.69 23.46,-52.14 52.15,-52.14z"/>
  <path class="fil0" d="M14493.47 7319.33c0,-173.82 95.24,-324.22 244.37,-404.39 28.35,-15.24 58.09,-26.79 88.61,-34.81l-87.57 -123.64 93.78 -129.77c-144.17,21.62 -274.77,90.71 -391.4,206.02 -258.55,255.62 -254.3,708.6 -0.05,961.95 29.63,29.54 57.57,53.3 90.93,78.31l75.26 48.85 153.17 61.2c23.81,6.93 57.17,14.55 90.2,19.42l72.91 -102.97 -111.68 -158.04c-69.69,-19.38 -129.69,-55.89 -190.21,-116.05 -74.86,-74.43 -128.31,-200.68 -128.31,-306.08zm510.31 685.91c89.61,-5.72 131.98,-23.05 235.17,-64.55 177.73,-71.44 335.25,-274.65 379.48,-466.72 16.17,-70.22 10.75,-59.53 14.98,-114.78 7.32,-95.72 3.97,-21.1 -0.46,-118.74 -1.04,-23.17 -7.02,-51.11 -11.56,-73.06 -34.69,-167.94 -132.03,-310.56 -265.56,-411.4 -63.43,-47.89 -146.76,-91.46 -227.02,-111.46 -46.56,-11.59 -92.02,-19.18 -136.36,-22.78l-96.97 136.98 77.06 108.84c213.5,17.19 417.93,184.86 417.93,451.76 0,225.1 -190.79,428.59 -410.22,439.53l100.02 138.4 -76.47 107.98z"/>
  <path class="fil0" d="M14493.47 10059.42c0,-173.82 95.24,-324.22 244.37,-404.38 28.35,-15.24 58.09,-26.79 88.61,-34.82l-87.57 -123.64 93.78 -129.76c-144.17,21.61 -274.77,90.7 -391.4,206.02 -258.55,255.63 -254.3,708.6 -0.05,961.95 29.63,29.54 57.57,53.3 90.93,78.31l75.26 48.85 153.17 61.2c23.81,6.94 57.17,14.55 90.2,19.42l72.91 -102.97 -111.68 -158.04c-69.69,-19.39 -129.69,-55.89 -190.21,-116.06 -74.86,-74.43 -128.31,-200.68 -128.31,-306.08zm510.31 685.91c89.61,-5.72 131.98,-23.04 235.17,-64.54 177.73,-71.45 335.25,-274.65 379.48,-466.73 16.17,-70.22 10.75,-59.53 14.98,-114.78 7.32,-95.72 3.97,-21.1 -0.46,-118.75 -1.04,-23.17 -7.02,-51.11 -11.56,-73.06 -34.69,-167.94 -132.03,-310.56 -265.56,-411.4 -63.43,-47.88 -146.76,-91.46 -227.02,-111.46 -46.56,-11.59 -92.02,-19.17 -136.36,-22.78l-96.97 136.98 77.06 108.84c213.5,17.2 417.93,184.86 417.93,451.76 0,225.11 -190.79,428.59 -410.22,439.53l100.02 138.41 -76.47 107.97z"/>
  <path class="fil0" d="M14493.47 12799.52c0,-173.83 95.24,-324.22 244.37,-404.39 28.35,-15.23 58.09,-26.79 88.61,-34.81l-87.57 -123.64 93.78 -129.76c-144.17,21.62 -274.77,90.7 -391.4,206.02 -258.55,255.63 -254.3,708.6 -0.05,961.96 29.63,29.54 57.57,53.29 90.93,78.31l75.26 48.85 153.17 61.2c23.81,6.94 57.17,14.55 90.2,19.43l72.91 -102.98 -111.68 -158.03c-69.69,-19.39 -129.69,-55.89 -190.21,-116.06 -74.86,-74.42 -128.31,-200.68 -128.31,-306.07zm510.31 685.9c89.61,-5.72 131.98,-23.05 235.17,-64.55 177.73,-71.44 335.25,-274.65 379.48,-466.72 16.17,-70.23 10.75,-59.54 14.98,-114.79 7.32,-95.72 3.97,-21.1 -0.46,-118.74 -1.04,-23.17 -7.02,-51.11 -11.56,-73.06 -34.69,-167.94 -132.03,-310.56 -265.56,-411.4 -63.43,-47.88 -146.76,-91.45 -227.02,-111.46 -46.56,-11.59 -92.02,-19.18 -136.36,-22.78l-96.97 136.98 77.06 108.84c213.5,17.2 417.93,184.87 417.93,451.77 0,225.09 -190.79,428.58 -410.22,439.52l100.02 138.41 -76.47 107.97z"/>
  <path class="fil0" d="M2319.82 5260.32l0 357.36 1500.65 0 -3.25 337.87 -691.98 0 0 347.62 -161.41 0 0 704.96 515.52 0 3.25 -347.62 337.87 0 -3.25 302.14 0 389.84 350.85 3.25 -3.24 334.63 -682.24 0 0 -347.61 -357.36 3.25 0 344.37 -161.41 0 0 1400.19 1558.36 0 0 -357.35 -344.36 0 0 -685.48 344.36 0 0 -691.98 347.63 0 0 -347.61 695.22 0 0 -704.96 -347.61 0 0 -347.62 -347.6 0 0 -337.87 695.22 0 0 -704.97 -357.36 0 0 347.61 -337.85 0 0 -695.23 -1052.6 0 3.25 357.37 344.37 0 3.24 347.61 344.38 0 0 337.87 -682.24 0 0 -347.61 -1510.39 0zm1153.03 1390.45l-337.87 0 0 -337.86 337.87 0 0 337.86zm1387.2 -347.61l-337.87 0 0 -337.87 337.87 0 0 337.87zm-1896.23 2064.52l0 431.17 256.43 -1.56 -0.21 -430.09 -256.21 0.48zm1201.01 -1716.91l-341.13 0 6.5 -337.86 337.86 0 -3.24 337.86zm-939.26 1123.98l-93.84 263.24 3.25 -337.88 337.87 0 -247.28 74.64zm1634.48 -779.6l-302.13 0 -45.47 3.24 0 344.37 -331.38 0 -3.24 -682.24 302.13 0 77.96 0 302.13 0 0 334.63z"/>
  <path class="fil0" d="M9610.46 5324.01l357.35 0 0 294.16 682.24 0 2.85 -294.16 354.5 0 0 651.52 -344.36 0 0 685.48 344.36 0 0 357.35 -1558.36 0 0 -1400.2 161.41 0 0 -294.16zm347.61 1337l-337.87 0 0 -337.87 337.87 0 0 337.87zm0 -695.22l-341.12 0 3.26 -337.88 337.87 0 0 337.88z"/>
  <polygon class="fil0" points="9608.7,7806.09 9822.72,7858.28 9910.44,7864.35 9910.44,8030.47 9608.7,8030.47 "/>
  <g style="clip-path:url(#id0)">
   <g id="_2061008530656">
   </g>
  </g>
  <polygon id="_1" class="fil1 str0" points="9608.7,7806.09 9822.72,7858.28 9910.44,7864.35 9910.44,8030.47 9608.7,8030.47 "/>
  <g style="clip-path:url(#id1)">
   <path id="_2" class="fil1 str1" d="M9608.7 7806.09l301.74 224.37m0 -224.37l-301.74 224.37"/>
  </g>
  <rect class="fil0 str0" x="9715.72" y="6787.88" width="829.46" height="2061.09"/>
 </g>
</svg>
